========================================================
		UPLOADED BY	: PIXEN
========================================================

========================================================
			General INFO
========================================================

Complete name                    : SUPERMAN (HINDI)
GENRE				 : Action | Adventure | Sci-Fi 
Format                           : DivX
Format/Info                      : Hack of AVI
File size                        : 804 MiB
Overall bit rate                 : 798 Kbps

========================================================
			Video INFO
========================================================

Format                           : MPEG-4 Visual
Format settings, BVOP            : Yes
Format settings, QPel            : No
Format settings, GMC             : No warppoints
Format settings, Matrix          : Default (H.263)
Muxing mode                      : Packed bitstream
Codec ID                         : DX50
Codec ID/Hint                    : DivX 5
Duration                         : 2h 20mn
Bit rate                         : 676 Kbps
Width                            : 384 pixels
Height                           : 288 pixels
Display aspect ratio             : 4:3
Frame rate                       : 25.000 fps
Resolution                       : 8 bits
Colorimetry                      : 4:2:0
Scan type                        : Progressive
Bits/(Pixel*Frame)               : 0.245
Stream size                      : 681 MiB (85%)
Writing library                  : DivX 2151

========================================================
			Audio INFO
========================================================

Format                           : MPEG Audio
Format version                   : Version 1
Format profile                   : Layer 3
Codec ID                         : 55
Codec ID/Hint                    : MP3
Bit rate mode                    : Constant
Bit rate                         : 112 Kbps
Channel(s)                       : 2 channels
Sampling rate                    : 48.0 KHz
Stream size                      : 113 MiB (14%)
Alignment                        : Split accross interleaves
Interleave, duration             : 40 ms (1.00 video frame)
Interleave, preload duration     : 500 ms





IMDB LINK			 : http://www.imdb.com/title/tt0348150/

DOWNLOAD MORE HOLLYWOOD MOVIES
JUST FOLLOW THE LINK		 : http://thepiratebay.org/user/pixmaker/



DONT FORGET TO SEED & POST COMMENTS

ENJOY!






